<svg width="87" height="82" viewBox="0 0 87 82" fill="none" xmlns="http://www.w3.org/2000/svg">
<path d="M42.5678 27.402C44.6415 26.3784 45.3125 25.2618 45.3125 24.4861C45.3125 23.8085 44.8161 22.8765 43.2542 21.9427L45.1958 19.0573C47.2571 20.2897 48.9375 22.135 48.9375 24.4861C48.9375 27.1698 46.7683 29.1853 44.25 30.4287C41.6456 31.7144 38.1734 32.4583 34.4375 32.4583C30.7016 32.4583 27.2294 31.7144 24.625 30.4287C22.1067 29.1853 19.9375 27.1698 19.9375 24.4861C19.9375 22.135 21.6179 20.2897 23.6792 19.0573L25.6208 21.9427C24.0589 22.8765 23.5625 23.8085 23.5625 24.4861C23.5625 25.2618 24.2335 26.3784 26.3072 27.402C28.2948 28.3834 31.1663 29.0417 34.4375 29.0417C37.7087 29.0417 40.5802 28.3834 42.5678 27.402Z" fill="#E3AEC3"/>
<path fill-rule="evenodd" clip-rule="evenodd" d="M41.6791 41.9275C51.1493 39.823 58 33.7022 58 26.4792C58 17.5161 47.4507 10.25 34.4375 10.25C21.4243 10.25 10.875 17.5161 10.875 26.4792C10.875 31.5628 14.2686 36.1007 19.5808 39.0764C11.4711 43.6233 7.77832 51.9176 11.3312 57.7176C14.9225 63.5806 24.5574 64.6746 32.8512 60.1614C40.8873 55.7884 44.7158 47.7556 41.6791 41.9275ZM48.96 35.1963C52.5425 32.7286 54.375 29.6056 54.375 26.4792C54.375 23.3527 52.5425 20.2297 48.96 17.7621C45.3799 15.2962 40.2572 13.6667 34.4375 13.6667C28.6177 13.6667 23.4951 15.2962 19.915 17.7621C16.3324 20.2297 14.5 23.3527 14.5 26.4792C14.5 29.6056 16.3324 32.7286 19.915 35.1963C23.4951 37.6621 28.6177 39.2917 34.4375 39.2917C40.2572 39.2917 45.3799 37.6621 48.96 35.1963ZM21.6583 41.889C22.3314 41.5226 23.0108 41.2021 23.6905 40.9259C25.6577 41.6215 27.7854 42.1321 30.0255 42.4242L29.7681 44.5527C30.9383 44.6782 31.5444 45.101 31.8059 45.5278C32.1023 46.0116 32.1704 46.8779 31.4577 48.1115C30.7625 49.3148 29.4426 50.6077 27.6098 51.605C25.7772 52.6023 23.9293 53.0333 22.4759 52.9992C20.9862 52.964 20.2242 52.4752 19.9279 51.9913C19.6665 51.5645 19.5812 50.8585 20.0508 49.8405L16.7265 48.4781C15.9679 50.1225 15.7691 52.0353 16.7886 53.6996C17.9553 55.6044 20.1989 56.3632 22.3856 56.4146C24.6087 56.4669 27.1083 55.8232 29.4223 54.5638C31.7365 53.3046 33.5778 51.5862 34.6414 49.7455C35.6874 47.9348 36.1119 45.7241 34.9452 43.8194C34.6836 43.3925 34.3672 43.0228 34.009 42.7058C34.1515 42.7075 34.2943 42.7083 34.4375 42.7083C35.5962 42.7083 36.7356 42.6508 37.8495 42.5394C37.9865 42.7147 38.1122 42.8956 38.2263 43.0821C39.3236 44.8735 39.4355 47.2756 38.2318 49.9315C37.0276 52.5887 34.572 55.2798 31.0387 57.2025C27.5052 59.1253 23.8048 59.784 20.7613 59.4384C17.7191 59.093 15.5678 57.8006 14.4705 56.0093C13.3732 54.2181 13.2615 51.8158 14.4652 49.1599C15.6694 46.5027 18.125 43.8117 21.6583 41.889Z" fill="#E3AEC3"/>
<path d="M66.3312 58.7137C66.1608 59.3128 65.5021 60.0141 63.9941 60.4332C62.5213 60.8425 60.5179 60.8775 58.3708 60.3351C56.2238 59.7929 54.5073 58.8186 53.449 57.7699C52.3655 56.6964 52.167 55.7786 52.3372 55.1797C52.4873 54.6518 53.0022 54.0561 54.1619 53.6256L52.8333 50.4466C50.9992 51.1275 49.3783 52.3871 48.8358 54.2953C48.2149 56.4791 49.2585 58.5752 50.8225 60.1248C52.4117 61.6994 54.7486 62.9576 57.4327 63.6354C60.1166 64.3133 62.808 64.3249 65.0195 63.7103C67.1961 63.1053 69.2118 61.7819 69.8326 59.5981C70.375 57.6899 69.6393 55.8352 68.4123 54.3812L65.5753 56.5081C66.3513 57.4274 66.4812 58.1859 66.3312 58.7137Z" fill="#E3AEC3"/>
<path fill-rule="evenodd" clip-rule="evenodd" d="M76.5691 62.2809C74.6273 69.1111 65.2203 72.6699 55.5578 70.2298C45.8954 67.7896 39.6367 60.2743 41.5784 53.4438C43.5203 46.6136 52.9274 43.0548 62.5896 45.495C72.2521 47.9352 78.5108 55.4505 76.5691 62.2809ZM73.0677 61.3965C72.4583 63.5399 70.6141 65.4239 67.6084 66.5609C64.6015 67.6985 60.643 67.9768 56.4962 66.9294C52.3494 65.8822 49.0687 63.7758 47.0681 61.3736C45.0682 58.9722 44.4706 56.4717 45.08 54.3282C45.6893 52.1848 47.5334 50.3009 50.5392 49.1638C53.5461 48.0262 57.5046 47.7479 61.6515 48.7953C65.7983 49.8425 69.0789 51.9489 71.0795 54.3513C73.0793 56.7525 73.677 59.253 73.0677 61.3965Z" fill="#E3AEC3"/>
<path fill-rule="evenodd" clip-rule="evenodd" d="M64.9516 42.3059C69.2926 43.4021 73.5186 41.8033 74.391 38.7346C75.2633 35.6661 72.4516 32.2897 68.1107 31.1935C63.7697 30.0972 59.5437 31.6961 58.6713 34.7646C57.799 37.8333 60.6107 41.2094 64.9516 42.3059ZM69.6217 38.9112C70.5334 38.5663 70.8149 38.1129 70.8896 37.8503C70.9643 37.5878 70.961 37.0625 70.3543 36.334C69.747 35.6047 68.6586 34.8691 67.1725 34.4938C65.6864 34.1185 64.3535 34.2427 63.4406 34.5879C62.5289 34.9329 62.2474 35.3862 62.1727 35.649C62.098 35.9116 62.1013 36.4369 62.708 37.1651C63.3153 37.8946 64.4037 38.6302 65.8898 39.0055C67.3759 39.3808 68.7088 39.2566 69.6217 38.9112Z" fill="#E3AEC3"/>
</svg>
