<svg width="93" height="89" viewBox="0 0 93 89" fill="none" xmlns="http://www.w3.org/2000/svg">
<g filter="url(#filter0_d_19_158)">
<path fill-rule="evenodd" clip-rule="evenodd" d="M13.5625 77.875C12.4925 77.875 11.625 77.0449 11.625 76.0208V12.9792H15.5V74.1667H21.3125V46.3542C21.3125 45.3301 22.1799 44.5 23.25 44.5H34.875C35.9451 44.5 36.8125 45.3301 36.8125 46.3542V74.1667H40.6875V38.9375C40.6875 37.9135 41.5549 37.0833 42.625 37.0833H54.25C55.3201 37.0833 56.1875 37.9135 56.1875 38.9375V74.1667H60.0625V24.1042C60.0625 23.0801 60.9299 22.25 62 22.25H73.625C74.6951 22.25 75.5625 23.0801 75.5625 24.1042V74.1667H79.4375V77.875H13.5625ZM71.6875 74.1667V25.9583H63.9375V74.1667H71.6875ZM52.3125 74.1667H44.5625V40.7917H52.3125V74.1667ZM32.9375 74.1667V48.2083H25.1875V74.1667H32.9375Z" fill="#E82222"/>
<path d="M75.5625 74.6667H78.9375V77.375H13.5625C12.7476 77.375 12.125 76.7483 12.125 76.0208V13.4792H15V74.1667V74.6667H15.5H21.3125H21.8125V74.1667V46.3542C21.8125 45.6267 22.4351 45 23.25 45H34.875C35.6899 45 36.3125 45.6267 36.3125 46.3542V74.1667V74.6667H36.8125H40.6875H41.1875V74.1667V38.9375C41.1875 38.2101 41.8101 37.5833 42.625 37.5833H54.25C55.0649 37.5833 55.6875 38.2101 55.6875 38.9375V74.1667V74.6667H56.1875H60.0625H60.5625V74.1667V24.1042C60.5625 23.3767 61.1851 22.75 62 22.75H73.625C74.4399 22.75 75.0625 23.3767 75.0625 24.1042V74.1667V74.6667H75.5625ZM71.6875 74.6667H72.1875V74.1667V25.9583V25.4583H71.6875H63.9375H63.4375V25.9583V74.1667V74.6667H63.9375H71.6875ZM52.3125 74.6667H52.8125V74.1667V40.7917V40.2917H52.3125H44.5625H44.0625V40.7917V74.1667V74.6667H44.5625H52.3125ZM32.9375 74.6667H33.4375V74.1667V48.2083V47.7083H32.9375H25.1875H24.6875V48.2083V74.1667V74.6667H25.1875H32.9375Z" stroke="black" stroke-opacity="0.1"/>
</g>
<defs>
<filter id="filter0_d_19_158" x="7.625" y="12.9792" width="75.8125" height="72.8958" filterUnits="userSpaceOnUse" color-interpolation-filters="sRGB">
<feFlood flood-opacity="0" result="BackgroundImageFix"/>
<feColorMatrix in="SourceAlpha" type="matrix" values="0 0 0 0 0 0 0 0 0 0 0 0 0 0 0 0 0 0 127 0" result="hardAlpha"/>
<feOffset dy="4"/>
<feGaussianBlur stdDeviation="2"/>
<feComposite in2="hardAlpha" operator="out"/>
<feColorMatrix type="matrix" values="0 0 0 0 0 0 0 0 0 0 0 0 0 0 0 0 0 0 0.25 0"/>
<feBlend mode="normal" in2="BackgroundImageFix" result="effect1_dropShadow_19_158"/>
<feBlend mode="normal" in="SourceGraphic" in2="effect1_dropShadow_19_158" result="shape"/>
</filter>
</defs>
</svg>
