<svg width="122" height="120" viewBox="0 0 122 120" fill="none" xmlns="http://www.w3.org/2000/svg">
<g filter="url(#filter0_d_19_124)">
<path d="M50.8341 15H61.0008V21.6096C64.2345 21.4159 67.3689 21.6011 70.1853 22.1859C58.2385 26.811 52.7419 38.697 51.8419 40.6435L51.7865 40.7627C48.8671 40.3267 45.7042 39.9643 42.7114 39.9912C39.6274 40.2498 36.6351 40.698 31.707 43.4282C31.0121 43.9112 30.0753 44.7035 28.8022 45.9115C28.7096 45.846 28.6105 45.7852 28.4809 45.7055C28.3772 45.6418 28.2534 45.566 28.0979 45.466C27.3941 45.0137 26.3665 44.4017 25.1134 43.7905C22.5322 42.5307 19.3658 41.4565 16.2627 41.4565V31.7607C21.6283 31.7607 26.4524 33.5525 29.7444 35.159C30.8863 35.7162 31.8885 36.2733 32.7179 36.7682C33.4516 35.2278 34.4198 33.795 35.5772 32.474L29.9942 23.8568L38.9434 18.1404L44.0941 26.0908C46.2154 25.0148 48.4907 24.1219 50.8341 23.4202V15Z" fill="url(#paint0_linear_19_124)" shape-rendering="crispEdges"/>
<path d="M51.3341 23.4202V15.5H60.5008V21.6096V22.1404L61.0307 22.1087C63.6056 21.9544 66.1107 22.0437 68.4335 22.3843C57.7467 27.297 52.6022 37.8278 51.4901 40.2135C48.6644 39.8008 45.6117 39.4651 42.7069 39.4913L42.6883 39.4914L42.6697 39.493C39.5324 39.756 36.4681 40.2189 31.4647 42.9909L31.4425 43.0032L31.4217 43.0177C30.7504 43.4843 29.8807 44.214 28.7432 45.2798L28.7429 45.2796L28.7427 45.2795L28.7223 45.267C28.6229 45.2059 28.5091 45.136 28.3682 45.0454L28.3682 45.0454C27.6513 44.5847 26.6065 43.9625 25.3327 43.3411C22.8525 42.1307 19.8071 41.072 16.7627 40.9653V32.266C21.8224 32.3724 26.3714 34.0694 29.5251 35.6083L29.7444 35.159L29.5251 35.6084C30.6528 36.1586 31.6426 36.7088 32.4616 37.1976L32.9331 37.479L33.1693 36.9833C33.8813 35.4884 34.8228 34.0937 35.9533 32.8035L36.2023 32.5193L35.9969 32.2021L30.6875 24.0073L38.7939 18.8293L43.6745 26.3626L43.9191 26.7402L44.3203 26.5367C46.4128 25.4752 48.6601 24.5931 50.9775 23.8992L51.3341 23.7924V23.4202Z" stroke="black" stroke-opacity="0.5" shape-rendering="crispEdges"/>
</g>
<g filter="url(#filter1_d_19_124)">
<path d="M78.1733 36.7275C74.4683 38.4167 71.2612 41.1935 68.3698 46.5385C68.3698 46.5385 61.9549 43.653 56.7506 42.1532C60.7448 34.1882 65.3928 29.7067 72.2469 26.5817C78.8771 23.5588 86.7867 22.7848 96.183 23.1042L95.7382 35.0002C87.0683 34.7055 82.1019 34.9362 78.1733 36.7275Z" fill="url(#paint1_linear_19_124)" shape-rendering="crispEdges"/>
<path d="M77.9658 36.2726C74.247 37.9681 71.0328 40.7278 68.1525 45.8955C67.9777 45.8188 67.7524 45.7206 67.4839 45.605C66.7984 45.3098 65.8302 44.9007 64.6988 44.4445C62.604 43.6 59.939 42.5899 57.4687 41.8439C61.3554 34.3041 65.868 30.0396 72.4543 27.0367C78.8629 24.1148 86.5177 23.3139 95.6646 23.5878L95.2572 34.4841C86.9048 34.2154 81.939 34.461 77.9658 36.2726Z" stroke="black" stroke-opacity="0.5" shape-rendering="crispEdges"/>
</g>
<g filter="url(#filter2_d_19_124)">
<path d="M33.7559 48.0487C15.2966 64.2437 41.6668 104.731 62.7634 104.731C83.8597 104.731 112.909 64.2797 91.7709 45.7352C91.2832 45.3072 90.8562 44.9222 90.4597 44.5647C88.7125 42.989 87.5497 41.9405 84.3259 40.055C77.8388 40.055 73.9295 46.4377 72.1498 50.3262C72.0593 50.5237 71.9477 50.708 71.8186 50.877L67.7158 62.1035L66.2374 67.324C66.0813 67.8752 66.122 68.4622 66.353 68.9875L68.0798 72.913L77.0214 71.8922L77.6075 76.8587L69.1979 77.819L69.7443 85.6985L64.673 86.0387L63.991 76.2092L61.6878 70.973C60.9947 69.3975 60.8722 67.6357 61.3403 65.9822L61.3846 65.8262L56.2148 68.1257L52.8346 76.5302L48.1076 74.691L50.7848 68.035L42.6248 66.144L43.7904 61.2772L53.971 63.6365L63.2646 59.5022L66.3899 50.951C58.3379 47.23 41.8025 40.989 33.7559 48.0487Z" fill="url(#paint2_linear_19_124)" shape-rendering="crispEdges"/>
<path d="M69.2455 85.732L69.2455 85.7331L69.7443 85.6985L69.7109 85.1996L69.7098 85.1997L69.1979 77.819L69.2455 85.732ZM69.2455 85.732L64.673 86.0387L63.991 76.2092L69.2455 85.732ZM91.4412 46.1111L91.4412 46.1111C101.73 55.1374 99.8929 69.5686 92.6733 81.9353C89.076 88.0973 84.1704 93.6828 78.8654 97.7232C73.5526 101.77 67.8865 104.231 62.7634 104.231C57.6431 104.231 52.1461 101.77 47.044 97.7589C41.9488 93.7536 37.2926 88.2376 33.8606 82.2155C30.4271 76.1909 28.2363 69.6908 28.0338 63.7207C27.8316 57.761 29.6082 52.3528 34.0856 48.4246L33.7559 48.0487L34.0856 48.4246C37.9256 45.0556 43.8636 44.8114 49.9795 45.9487C55.8579 47.0418 61.752 49.384 65.7618 51.2128L62.8678 59.1315L53.9208 63.1116L43.9033 60.7902L43.4197 60.6781L43.3041 61.1608L42.1385 66.0275L42.0212 66.5174L42.5119 66.6311L50.103 68.3902L47.6438 74.5044L47.4551 74.9736L47.9263 75.157L52.6533 76.9962L53.1141 77.1755L53.2985 76.7168L56.6031 68.5003L60.6692 66.6917C60.416 68.2019 60.6073 69.7587 61.2301 71.1743L63.4983 76.3308L64.1742 86.0733L64.2087 86.571L64.7064 86.5376L69.7778 86.1974L70.2778 86.1638L70.2431 85.6639L69.7298 78.2615L77.6642 77.3555L78.1629 77.2986L78.1041 76.8001L77.5179 71.8336L77.4596 71.339L76.9647 71.3955L68.3891 72.3744L66.8107 68.7862C66.6264 68.3672 66.5941 67.8996 66.7185 67.4602L68.1918 62.2577L72.2632 51.1172C72.3945 50.9368 72.5093 50.742 72.6043 50.5345L72.6044 50.5343C73.4828 48.6152 74.8769 46.1042 76.8322 44.0798C78.7558 42.0882 81.1895 40.5991 84.1918 40.556C87.2823 42.3723 88.4113 43.3906 90.1185 44.9303L90.1248 44.936L90.1249 44.9361C90.5212 45.2935 90.9506 45.6806 91.4412 46.1111ZM68.0798 72.913L77.0214 71.8922L66.2374 67.324C66.0813 67.8752 66.122 68.4622 66.353 68.9875L68.0798 72.913Z" stroke="black" stroke-opacity="0.55" shape-rendering="crispEdges"/>
</g>
<defs>
<filter id="filter0_d_19_124" x="12.2627" y="15" width="61.9226" height="38.9115" filterUnits="userSpaceOnUse" color-interpolation-filters="sRGB">
<feFlood flood-opacity="0" result="BackgroundImageFix"/>
<feColorMatrix in="SourceAlpha" type="matrix" values="0 0 0 0 0 0 0 0 0 0 0 0 0 0 0 0 0 0 127 0" result="hardAlpha"/>
<feOffset dy="4"/>
<feGaussianBlur stdDeviation="2"/>
<feComposite in2="hardAlpha" operator="out"/>
<feColorMatrix type="matrix" values="0 0 0 0 0 0 0 0 0 0 0 0 0 0 0 0 0 0 0.25 0"/>
<feBlend mode="normal" in2="BackgroundImageFix" result="effect1_dropShadow_19_124"/>
<feBlend mode="normal" in="SourceGraphic" in2="effect1_dropShadow_19_124" result="shape"/>
</filter>
<filter id="filter1_d_19_124" x="52.7506" y="23.0374" width="47.4324" height="31.5011" filterUnits="userSpaceOnUse" color-interpolation-filters="sRGB">
<feFlood flood-opacity="0" result="BackgroundImageFix"/>
<feColorMatrix in="SourceAlpha" type="matrix" values="0 0 0 0 0 0 0 0 0 0 0 0 0 0 0 0 0 0 127 0" result="hardAlpha"/>
<feOffset dy="4"/>
<feGaussianBlur stdDeviation="2"/>
<feComposite in2="hardAlpha" operator="out"/>
<feColorMatrix type="matrix" values="0 0 0 0 0 0 0 0 0 0 0 0 0 0 0 0 0 0 0.25 0"/>
<feBlend mode="normal" in2="BackgroundImageFix" result="effect1_dropShadow_19_124"/>
<feBlend mode="normal" in="SourceGraphic" in2="effect1_dropShadow_19_124" result="shape"/>
</filter>
<filter id="filter2_d_19_124" x="23.5184" y="40.055" width="79.6066" height="72.6763" filterUnits="userSpaceOnUse" color-interpolation-filters="sRGB">
<feFlood flood-opacity="0" result="BackgroundImageFix"/>
<feColorMatrix in="SourceAlpha" type="matrix" values="0 0 0 0 0 0 0 0 0 0 0 0 0 0 0 0 0 0 127 0" result="hardAlpha"/>
<feOffset dy="4"/>
<feGaussianBlur stdDeviation="2"/>
<feComposite in2="hardAlpha" operator="out"/>
<feColorMatrix type="matrix" values="0 0 0 0 0 0 0 0 0 0 0 0 0 0 0 0 0 0 0.25 0"/>
<feBlend mode="normal" in2="BackgroundImageFix" result="effect1_dropShadow_19_124"/>
<feBlend mode="normal" in="SourceGraphic" in2="effect1_dropShadow_19_124" result="shape"/>
</filter>
<linearGradient id="paint0_linear_19_124" x1="43.224" y1="15" x2="43.224" y2="45.9115" gradientUnits="userSpaceOnUse">
<stop offset="0.885417" stop-color="#EA3939"/>
<stop offset="0.947917" stop-opacity="0"/>
</linearGradient>
<linearGradient id="paint1_linear_19_124" x1="76.4668" y1="23.0374" x2="76.4668" y2="46.5385" gradientUnits="userSpaceOnUse">
<stop offset="0.885417" stop-color="#EA3939"/>
<stop offset="0.947917" stop-opacity="0"/>
</linearGradient>
<linearGradient id="paint2_linear_19_124" x1="63.3217" y1="40.055" x2="99.0457" y2="94.4432" gradientUnits="userSpaceOnUse">
<stop offset="0.78125" stop-color="#E12D2D"/>
<stop offset="1" stop-color="#D31A1A" stop-opacity="0"/>
</linearGradient>
</defs>
</svg>
